<svg viewBox="0 0 133 60" xmlns="http://www.w3.org/2000/svg">
  <defs>
    <linearGradient x1="50%" y1="0%" x2="50%" y2="100%" id="a">
      <stop stop-color="#FF9600" offset="0%"/>
      <stop stop-color="#FF5F00" offset="100%"/>
    </linearGradient>
    <linearGradient x1="50%" y1="0%" x2="50%" y2="100%" id="b">
      <stop stop-color="#5BC015" offset="0%"/>
      <stop stop-color="#327002" offset="100%"/>
    </linearGradient>
    <linearGradient x1="50%" y1="2.423%" x2="50%" y2="100%" id="c">
      <stop stop-color="#77EC31" offset="0%"/>
      <stop stop-color="#55B709" offset="100%"/>
    </linearGradient>
  </defs>
  <g fill="none" fill-rule="evenodd">
    <path d="M20 60C8.954 60 0 51.046 0 40s8.954-20 20-20 20 8.954 20 20-8.954 20-20 20zm0-10c5.523 0 10-4.477 10-10s-4.477-10-10-10-10 4.477-10 10 4.477 10 10 10z" fill="url(#a)"/>
    <path d="M5.208 16.8c-6.944-5.86-6.944-11.46 0-16.8 6.39 5.34 6.39 10.94 0 16.8z" fill="url(#b)" transform="translate(15)"/>
    <path d="M5.2 16.8C5.2 7.143 6.89 5.305 17 5.2c0 9.064-2.815 11.6-11.8 11.6z" fill="url(#c)" transform="translate(15)"/>
    <g fill="#2A2A2A">
      <path d="M49.4 25.183c0-.21.05-.397.15-.558a.48.48 0 0 1 .433-.242H56.9c.189 0 .333.078.433.234.1.155.15.339.15.55 0 .233-.052.43-.158.591A.486.486 0 0 1 56.9 26h-2.567v9.983c0 .178-.089.32-.266.425a1.185 1.185 0 0 1-.617.159c-.244 0-.453-.053-.625-.159-.172-.105-.258-.247-.258-.425V26h-2.584a.486.486 0 0 1-.425-.242 1.026 1.026 0 0 1-.158-.575zm10.25 10.8V24.95c0-.189.086-.33.258-.425.173-.094.38-.142.625-.142s.453.048.625.142a.457.457 0 0 1 .259.425v4.6h4.15v-4.6c0-.189.086-.33.258-.425.172-.094.38-.142.625-.142.244 0 .453.048.625.142a.457.457 0 0 1 .258.425v11.033c0 .178-.086.32-.258.425-.172.106-.38.159-.625.159-.233 0-.439-.053-.617-.159-.177-.105-.266-.247-.266-.425V30.95h-4.15v5.033c0 .178-.086.32-.259.425-.172.106-.38.159-.625.159-.233 0-.439-.053-.616-.159-.178-.105-.267-.247-.267-.425zm10.717 0V24.967a.49.49 0 0 1 .233-.425.956.956 0 0 1 .55-.159h5.933c.19 0 .334.078.434.234.1.155.15.333.15.533a.985.985 0 0 1-.159.567.49.49 0 0 1-.425.233h-4.95v3.817H74.7c.178 0 .32.07.425.208a.816.816 0 0 1 .158.508c0 .178-.05.336-.15.475a.501.501 0 0 1-.433.209h-2.567V35h4.95a.49.49 0 0 1 .425.233.985.985 0 0 1 .159.567c0 .2-.05.378-.15.533a.484.484 0 0 1-.434.234H71.15a.956.956 0 0 1-.55-.159.49.49 0 0 1-.233-.425zm13.6-3.033V28.1c0-1.278.339-2.217 1.016-2.817.678-.6 1.584-.9 2.717-.9s2.042.3 2.725.9c.683.6 1.025 1.54 1.025 2.817v4.85c0 1.278-.342 2.217-1.025 2.817-.683.6-1.592.9-2.725.9s-2.039-.3-2.717-.9c-.677-.6-1.016-1.54-1.016-2.817zm1.766 0c0 1.433.656 2.15 1.967 2.15.633 0 1.122-.178 1.467-.533.344-.356.516-.895.516-1.617V28.1c0-.722-.172-1.261-.516-1.617-.345-.355-.834-.533-1.467-.533-1.311 0-1.967.717-1.967 2.15v4.85zm8.617 3.033V24.95c0-.156.064-.289.192-.4a.722.722 0 0 1 .491-.167h3.25c1.111 0 1.998.295 2.659.884.66.589.991 1.516.991 2.783v.133c0 1.267-.341 2.198-1.025 2.792-.683.594-1.591.892-2.725.892h-2.066v4.116c0 .178-.086.32-.259.425-.172.106-.38.159-.625.159-.233 0-.439-.053-.616-.159-.178-.105-.267-.247-.267-.425zm1.767-5.516h2.066c.634 0 1.123-.18 1.467-.542.344-.361.517-.903.517-1.625v-.2c0-.722-.173-1.261-.517-1.617-.344-.355-.833-.533-1.467-.533h-2.066v4.517zm8.15 5.516V24.967a.49.49 0 0 1 .233-.425.956.956 0 0 1 .55-.159h5.933c.19 0 .334.078.434.234.1.155.15.333.15.533a.985.985 0 0 1-.159.567.49.49 0 0 1-.425.233h-4.95v3.817h2.567c.178 0 .32.07.425.208a.816.816 0 0 1 .158.508c0 .178-.05.336-.15.475a.501.501 0 0 1-.433.209h-2.567V35h4.95a.49.49 0 0 1 .425.233.985.985 0 0 1 .159.567c0 .2-.05.378-.15.533a.484.484 0 0 1-.434.234h-5.933a.956.956 0 0 1-.55-.159.49.49 0 0 1-.233-.425zm9.55 0V24.967c0-.39.294-.584.883-.584.311 0 .561.07.75.209.189.139.383.402.583.791l3.7 7.217v-7.65c0-.189.086-.33.259-.425.172-.094.38-.142.625-.142.244 0 .452.048.625.142a.457.457 0 0 1 .258.425v11.033c0 .178-.086.32-.258.425-.173.106-.38.159-.625.159-.467 0-.817-.217-1.05-.65l-3.984-7.584v7.65c0 .178-.086.32-.258.425-.172.106-.38.159-.625.159-.233 0-.439-.053-.617-.159-.177-.105-.266-.247-.266-.425zm-63.65 18.234V43.4c0-.211.094-.378.283-.5a1.2 1.2 0 0 1 .667-.183h5.816c.223 0 .39.091.5.275.111.183.167.402.167.658 0 .267-.058.494-.175.683a.549.549 0 0 1-.492.284h-4.6v3.333h2.55c.211 0 .375.083.492.25.117.167.175.372.175.617a.991.991 0 0 1-.175.583.566.566 0 0 1-.492.25h-2.55v4.567c0 .21-.108.377-.325.5-.216.122-.47.183-.758.183-.3 0-.556-.061-.767-.183-.21-.123-.316-.29-.316-.5zm9.033-3.034v-4.65c0-1.322.353-2.289 1.058-2.9.706-.61 1.653-.916 2.842-.916s2.139.305 2.85.916c.711.611 1.067 1.578 1.067 2.9v4.65c0 1.323-.356 2.29-1.067 2.9-.711.611-1.661.917-2.85.917s-2.136-.306-2.842-.917c-.705-.61-1.058-1.577-1.058-2.9zm2.167 0c0 1.278.577 1.917 1.733 1.917 1.167 0 1.75-.639 1.75-1.917v-4.65c0-1.277-.583-1.916-1.75-1.916-1.156 0-1.733.639-1.733 1.916v4.65zm8.2 0v-4.65c0-1.322.352-2.289 1.058-2.9.706-.61 1.653-.916 2.842-.916s2.139.305 2.85.916c.71.611 1.066 1.578 1.066 2.9v4.65c0 1.323-.355 2.29-1.066 2.9-.711.611-1.661.917-2.85.917-1.19 0-2.136-.306-2.842-.917-.706-.61-1.058-1.577-1.058-2.9zm2.166 0c0 1.278.578 1.917 1.734 1.917 1.166 0 1.75-.639 1.75-1.917v-4.65c0-1.277-.584-1.916-1.75-1.916-1.156 0-1.734.639-1.734 1.916v4.65zm8.334 3.05v-10.85c0-.177.089-.333.266-.466.178-.134.406-.2.684-.2h2.95c1.189 0 2.139.305 2.85.916.71.611 1.066 1.578 1.066 2.9v4.55c0 1.323-.355 2.29-1.066 2.9-.711.611-1.661.917-2.85.917h-2.95c-.278 0-.506-.067-.684-.2-.177-.133-.266-.289-.266-.467zM82.233 53h1.734c1.166 0 1.75-.639 1.75-1.917v-4.55c0-1.277-.584-1.916-1.75-1.916h-1.734V53zm12.5 1.217V43.383a.64.64 0 0 1 .2-.466c.134-.134.3-.2.5-.2h3.3c2.634 0 3.95 1.16 3.95 3.483 0 .911-.197 1.644-.591 2.2a2.927 2.927 0 0 1-1.592 1.133l2.183 4.05a.403.403 0 0 1 .084.267c0 .278-.145.536-.434.775-.289.239-.594.358-.916.358-.323 0-.573-.172-.75-.516l-2.367-4.6h-1.4v4.35c0 .21-.106.377-.317.5a1.506 1.506 0 0 1-.766.183c-.29 0-.542-.061-.759-.183-.216-.123-.325-.29-.325-.5zm2.167-6.05h1.833c1.19 0 1.784-.59 1.784-1.767 0-1.189-.595-1.783-1.784-1.783H96.9v3.55zm8.167 6.05V43.4c0-.211.094-.378.283-.5a1.2 1.2 0 0 1 .667-.183h5.933c.222 0 .392.094.508.283.117.189.175.406.175.65 0 .267-.06.494-.183.683a.568.568 0 0 1-.5.284h-4.717v3.333h2.534c.21 0 .377.086.5.258.122.173.183.375.183.609 0 .21-.058.402-.175.575a.576.576 0 0 1-.508.258h-2.534V53h4.717c.211 0 .378.094.5.283.122.19.183.417.183.684 0 .244-.058.46-.175.65a.562.562 0 0 1-.508.283h-5.933a1.2 1.2 0 0 1-.667-.183.568.568 0 0 1-.283-.5zm9.666 0V43.383c0-.177.075-.333.225-.466.15-.134.348-.2.592-.2h3.35c1.144 0 2.061.302 2.75.908.689.606 1.033 1.553 1.033 2.842v.1c0 1.3-.358 2.255-1.075 2.866-.716.611-1.664.917-2.841.917H116.9v3.867c0 .21-.108.377-.325.5-.217.122-.47.183-.758.183-.3 0-.556-.061-.767-.183-.211-.123-.317-.29-.317-.5zm2.167-5.567h1.867c.555 0 .986-.161 1.291-.483.306-.323.459-.8.459-1.434v-.2c0-.633-.153-1.11-.459-1.433-.305-.322-.736-.483-1.291-.483H116.9v4.033zm7.817 2.533v-4.65c0-1.322.352-2.289 1.058-2.9.706-.61 1.653-.916 2.842-.916s2.139.305 2.85.916c.71.611 1.066 1.578 1.066 2.9v4.65c0 1.323-.355 2.29-1.066 2.9-.711.611-1.661.917-2.85.917-1.19 0-2.136-.306-2.842-.917-.706-.61-1.058-1.577-1.058-2.9zm2.166 0c0 1.278.578 1.917 1.734 1.917 1.166 0 1.75-.639 1.75-1.917v-4.65c0-1.277-.584-1.916-1.75-1.916-1.156 0-1.734.639-1.734 1.916v4.65z"/>
    </g>
  </g>
</svg>
